<mxfile host="Electron" agent="Mozilla/5.0 (Windows NT 10.0; Win64; x64) AppleWebKit/537.36 (KHTML, like Gecko) draw.io/21.7.5 Chrome/114.0.5735.289 Electron/25.8.1 Safari/537.36" modified="2025-04-27T20:24:16.104Z" etag="MfYaKxrZOxpqurPnVyW-" version="21.7.5" type="device">
  <diagram name="Page-1" id="64c3da0e-402f-94eb-ee01-a36477274f13">
    <mxGraphModel dx="1400" dy="828" grid="1" gridSize="10" guides="1" tooltips="1" connect="1" arrows="1" fold="1" page="1" pageScale="1" pageWidth="1169" pageHeight="826" background="none" math="0" shadow="0">
      <root>
        <mxCell id="0" />
        <mxCell id="1" parent="0" />
        <mxCell id="8f8zLz7xY8ubk5F-xTtA-270" value="" style="edgeStyle=elbowEdgeStyle;elbow=vertical;rounded=0;fontColor=#000000;endArrow=none;endFill=0;strokeWidth=8;strokeColor=#23445D;exitX=0.5;exitY=0;exitDx=0;exitDy=0;" parent="1" edge="1">
          <mxGeometry width="100" height="100" relative="1" as="geometry">
            <mxPoint x="809.9999999999998" y="346.0000000000001" as="sourcePoint" />
            <mxPoint x="630" y="342" as="targetPoint" />
            <Array as="points">
              <mxPoint x="740" y="266" />
            </Array>
          </mxGeometry>
        </mxCell>
        <mxCell id="2" value="Repus Oiram" style="whiteSpace=wrap;rounded=1;shadow=1;fillColor=#10739E;strokeColor=none;fontColor=#FFFFFF;fontStyle=1;fontSize=24" parent="1" vertex="1">
          <mxGeometry x="1169" y="20" width="340" height="60" as="geometry" />
        </mxCell>
        <mxCell id="6" value="Game Logik&#xa;PSP-Code: 1.1" style="whiteSpace=wrap;rounded=1;fillColor=#F2931E;strokeColor=none;shadow=1;fontColor=#FFFFFF;fontStyle=1;fontSize=14" parent="1" vertex="1">
          <mxGeometry x="280" y="169.9999999999998" width="140" height="60" as="geometry" />
        </mxCell>
        <mxCell id="7" value="Game Design&#xa;PSP-Code: 1.2" style="whiteSpace=wrap;rounded=1;fillColor=#F2931E;strokeColor=none;shadow=1;fontColor=#FFFFFF;fontStyle=1;fontSize=14" parent="1" vertex="1">
          <mxGeometry x="1140" y="169.9999999999998" width="140" height="60" as="geometry" />
        </mxCell>
        <mxCell id="8" value="Grafisches Design&#xa;PSP-Code: 1.3" style="whiteSpace=wrap;rounded=1;fillColor=#F2931E;strokeColor=none;shadow=1;fontColor=#FFFFFF;fontStyle=1;fontSize=14" parent="1" vertex="1">
          <mxGeometry x="1640" y="169.9999999999998" width="140" height="60" as="geometry" />
        </mxCell>
        <mxCell id="133" value="Spieler Logik&#xa;PSP-Code: 1.1.1" style="whiteSpace=wrap;rounded=1;fillColor=#12AAB5;strokeColor=none;shadow=1;fontColor=#FFFFFF;" parent="1" vertex="1">
          <mxGeometry x="189.99999999999977" y="300.0000000000001" width="120" height="60" as="geometry" />
        </mxCell>
        <mxCell id="135" value="Steuerung&#xa;PSP-Code: 1.1.1.1" style="whiteSpace=wrap;rounded=1;fillColor=#999999;strokeColor=none;shadow=1;fontColor=#FFFFFF;fontStyle=0" parent="1" vertex="1">
          <mxGeometry x="80" y="400" width="200" height="60" as="geometry" />
        </mxCell>
        <mxCell id="136" value="Interaktion mit Plattformen&#xa;PSP-Code: 1.1.1.2" style="whiteSpace=wrap;rounded=1;fillColor=#999999;strokeColor=none;shadow=1;fontColor=#FFFFFF;fontStyle=0" parent="1" vertex="1">
          <mxGeometry x="159.9999999999999" y="480.0000000000001" width="120" height="60" as="geometry" />
        </mxCell>
        <mxCell id="140" value="Platzierung und Darstellung&#xa;PSP-Code: 1.1.2.1" style="whiteSpace=wrap;rounded=1;fillColor=#999999;strokeColor=none;shadow=1;fontColor=#FFFFFF;fontStyle=0" parent="1" vertex="1">
          <mxGeometry x="389.9999999999993" y="400.0000000000001" width="120" height="60" as="geometry" />
        </mxCell>
        <mxCell id="145" value="" style="edgeStyle=elbowEdgeStyle;elbow=horizontal;rounded=0;fontColor=#000000;endArrow=none;endFill=0;strokeWidth=8;strokeColor=#23445D;" parent="1" source="133" target="135" edge="1">
          <mxGeometry width="100" height="100" relative="1" as="geometry">
            <mxPoint x="300" y="330.00000000000045" as="sourcePoint" />
            <mxPoint x="309.99999999999955" y="430" as="targetPoint" />
            <Array as="points">
              <mxPoint x="300" y="380" />
            </Array>
          </mxGeometry>
        </mxCell>
        <mxCell id="146" value="" style="edgeStyle=elbowEdgeStyle;elbow=horizontal;rounded=0;fontColor=#000000;endArrow=none;endFill=0;strokeWidth=8;strokeColor=#23445D;" parent="1" source="133" target="136" edge="1">
          <mxGeometry width="100" height="100" relative="1" as="geometry">
            <mxPoint x="310" y="330" as="sourcePoint" />
            <mxPoint x="309.9999999999998" y="510" as="targetPoint" />
            <Array as="points">
              <mxPoint x="300" y="420" />
            </Array>
          </mxGeometry>
        </mxCell>
        <mxCell id="150" value="" style="edgeStyle=elbowEdgeStyle;elbow=horizontal;rounded=0;fontColor=#000000;endArrow=none;endFill=0;strokeWidth=8;strokeColor=#23445D;" parent="1" source="134" target="140" edge="1">
          <mxGeometry width="100" height="100" relative="1" as="geometry">
            <mxPoint x="360" y="330.00000000000045" as="sourcePoint" />
            <mxPoint x="369.99999999999955" y="430" as="targetPoint" />
            <Array as="points">
              <mxPoint x="370" y="380" />
            </Array>
          </mxGeometry>
        </mxCell>
        <mxCell id="155" value="Level Design&#xa;PSP-Code: 1.2.1" style="whiteSpace=wrap;rounded=1;fillColor=#12AAB5;strokeColor=none;shadow=1;fontColor=#FFFFFF;" parent="1" vertex="1">
          <mxGeometry x="1049.9999999999998" y="300.0000000000002" width="120" height="60" as="geometry" />
        </mxCell>
        <mxCell id="156" value="Story&#xa;PSP-Code: 1.2.2" style="whiteSpace=wrap;rounded=1;fillColor=#12AAB5;strokeColor=none;shadow=1;fontColor=#FFFFFF;" parent="1" vertex="1">
          <mxGeometry x="1249.9999999999998" y="300.0000000000002" width="120" height="60" as="geometry" />
        </mxCell>
        <mxCell id="157" value="Gestaltung Level 1&#xa;PSP-Code: 1.2.1.1 " style="whiteSpace=wrap;rounded=1;fillColor=#999999;strokeColor=none;shadow=1;fontColor=#FFFFFF;fontStyle=0" parent="1" vertex="1">
          <mxGeometry x="1049.9999999999998" y="400.0000000000002" width="120" height="60" as="geometry" />
        </mxCell>
        <mxCell id="158" value="Gestaltung Level 2&#xa;PSP-Code: 1.2.1.2 " style="whiteSpace=wrap;rounded=1;fillColor=#999999;strokeColor=none;shadow=1;fontColor=#FFFFFF;fontStyle=0" parent="1" vertex="1">
          <mxGeometry x="1050" y="480.0000000000002" width="120" height="60" as="geometry" />
        </mxCell>
        <mxCell id="159" value="Gestaltung Level 3&#xa;PSP-Code: 1.2.1.3 " style="whiteSpace=wrap;rounded=1;fillColor=#999999;strokeColor=none;shadow=1;fontColor=#FFFFFF;fontStyle=0" parent="1" vertex="1">
          <mxGeometry x="1049.9999999999998" y="560.0000000000002" width="120" height="60" as="geometry" />
        </mxCell>
        <mxCell id="160" value="Gestaltung Level 4&#xa;PSP-Code: 1.2.1.4 " style="whiteSpace=wrap;rounded=1;fillColor=#999999;strokeColor=none;shadow=1;fontColor=#FFFFFF;fontStyle=0" parent="1" vertex="1">
          <mxGeometry x="1050" y="640.0000000000002" width="120" height="60" as="geometry" />
        </mxCell>
        <mxCell id="161" value="Gestaltung Level 5&#xa;PSP-Code: 1.2.1.5 " style="whiteSpace=wrap;rounded=1;fillColor=#999999;strokeColor=none;shadow=1;fontColor=#FFFFFF;fontStyle=0" parent="1" vertex="1">
          <mxGeometry x="1050" y="720.0000000000002" width="120" height="60" as="geometry" />
        </mxCell>
        <mxCell id="162" value="Erfinden der Story&#xa;PSP-Code 1.2.2.1" style="whiteSpace=wrap;rounded=1;fillColor=#999999;strokeColor=none;shadow=1;fontColor=#FFFFFF;fontStyle=0" parent="1" vertex="1">
          <mxGeometry x="1249.9999999999993" y="400.0000000000002" width="120" height="60" as="geometry" />
        </mxCell>
        <mxCell id="163" value="Implementierung der Story 1.2.2.2" style="whiteSpace=wrap;rounded=1;fillColor=#999999;strokeColor=none;shadow=1;fontColor=#FFFFFF;fontStyle=0" parent="1" vertex="1">
          <mxGeometry x="1249.9999999999995" y="480.0000000000002" width="120" height="60" as="geometry" />
        </mxCell>
        <mxCell id="167" value="" style="edgeStyle=elbowEdgeStyle;elbow=horizontal;rounded=0;fontColor=#000000;endArrow=none;endFill=0;strokeWidth=8;strokeColor=#23445D;" parent="1" source="155" target="157" edge="1">
          <mxGeometry width="100" height="100" relative="1" as="geometry">
            <mxPoint x="1030" y="330.00000000000057" as="sourcePoint" />
            <mxPoint x="1039.9999999999995" y="430.0000000000001" as="targetPoint" />
            <Array as="points">
              <mxPoint x="1030" y="380.0000000000001" />
            </Array>
          </mxGeometry>
        </mxCell>
        <mxCell id="168" value="" style="edgeStyle=elbowEdgeStyle;elbow=horizontal;rounded=0;fontColor=#000000;endArrow=none;endFill=0;strokeWidth=8;strokeColor=#23445D;" parent="1" source="155" target="158" edge="1">
          <mxGeometry width="100" height="100" relative="1" as="geometry">
            <mxPoint x="1040" y="330.0000000000001" as="sourcePoint" />
            <mxPoint x="1039.9999999999998" y="510.0000000000001" as="targetPoint" />
            <Array as="points">
              <mxPoint x="1030" y="420.0000000000001" />
            </Array>
          </mxGeometry>
        </mxCell>
        <mxCell id="169" value="" style="edgeStyle=elbowEdgeStyle;elbow=horizontal;rounded=0;fontColor=#000000;endArrow=none;endFill=0;strokeWidth=8;strokeColor=#23445D;" parent="1" source="155" target="161" edge="1">
          <mxGeometry width="100" height="100" relative="1" as="geometry">
            <mxPoint x="1040" y="330.0000000000001" as="sourcePoint" />
            <mxPoint x="1040" y="750.0000000000001" as="targetPoint" />
            <Array as="points">
              <mxPoint x="1030" y="550.0000000000001" />
            </Array>
          </mxGeometry>
        </mxCell>
        <mxCell id="170" value="" style="edgeStyle=elbowEdgeStyle;elbow=horizontal;rounded=0;fontColor=#000000;endArrow=none;endFill=0;strokeWidth=8;strokeColor=#23445D;" parent="1" source="155" target="160" edge="1">
          <mxGeometry width="100" height="100" relative="1" as="geometry">
            <mxPoint x="1040" y="330.0000000000001" as="sourcePoint" />
            <mxPoint x="1040" y="670.0000000000001" as="targetPoint" />
            <Array as="points">
              <mxPoint x="1030" y="500.0000000000001" />
            </Array>
          </mxGeometry>
        </mxCell>
        <mxCell id="171" value="" style="edgeStyle=elbowEdgeStyle;elbow=horizontal;rounded=0;fontColor=#000000;endArrow=none;endFill=0;strokeWidth=8;strokeColor=#23445D;" parent="1" source="155" target="159" edge="1">
          <mxGeometry width="100" height="100" relative="1" as="geometry">
            <mxPoint x="1040" y="330.0000000000001" as="sourcePoint" />
            <mxPoint x="1039.9999999999998" y="590.0000000000001" as="targetPoint" />
            <Array as="points">
              <mxPoint x="1030" y="470.0000000000001" />
            </Array>
          </mxGeometry>
        </mxCell>
        <mxCell id="172" value="" style="edgeStyle=elbowEdgeStyle;elbow=horizontal;rounded=0;fontColor=#000000;endArrow=none;endFill=0;strokeWidth=8;strokeColor=#23445D;" parent="1" source="156" target="162" edge="1">
          <mxGeometry width="100" height="100" relative="1" as="geometry">
            <mxPoint x="1220" y="330.00000000000057" as="sourcePoint" />
            <mxPoint x="1229.9999999999995" y="430.0000000000001" as="targetPoint" />
            <Array as="points">
              <mxPoint x="1230" y="380.0000000000001" />
            </Array>
          </mxGeometry>
        </mxCell>
        <mxCell id="173" value="" style="edgeStyle=elbowEdgeStyle;elbow=horizontal;rounded=0;fontColor=#000000;endArrow=none;endFill=0;strokeWidth=8;strokeColor=#23445D;" parent="1" source="156" target="163" edge="1">
          <mxGeometry width="100" height="100" relative="1" as="geometry">
            <mxPoint x="1230" y="330.0000000000001" as="sourcePoint" />
            <mxPoint x="1229.9999999999998" y="510.0000000000001" as="targetPoint" />
            <Array as="points">
              <mxPoint x="1230" y="420.0000000000001" />
            </Array>
          </mxGeometry>
        </mxCell>
        <mxCell id="177" value="UI Design&#xa;PSP-Code: 1.3.1" style="whiteSpace=wrap;rounded=1;fillColor=#12AAB5;strokeColor=none;shadow=1;fontColor=#FFFFFF;" parent="1" vertex="1">
          <mxGeometry x="1549.9999999999998" y="299.9999999999999" width="120" height="60" as="geometry" />
        </mxCell>
        <mxCell id="178" value="Game-Element Design&#xa;PSP-Code: 1.3.2" style="whiteSpace=wrap;rounded=1;fillColor=#12AAB5;strokeColor=none;shadow=1;fontColor=#FFFFFF;" parent="1" vertex="1">
          <mxGeometry x="1750" y="300" width="140" height="60" as="geometry" />
        </mxCell>
        <mxCell id="179" value="Startbildschirm&#xa;PSP-Code: 1.3.1.1" style="whiteSpace=wrap;rounded=1;fillColor=#999999;strokeColor=none;shadow=1;fontColor=#FFFFFF;fontStyle=0" parent="1" vertex="1">
          <mxGeometry x="1549.9999999999998" y="399.9999999999999" width="120" height="60" as="geometry" />
        </mxCell>
        <mxCell id="180" value="Ladebilschirm&#xa;PSP-Code: 1.3.1.2" style="whiteSpace=wrap;rounded=1;fillColor=#999999;strokeColor=none;shadow=1;fontColor=#FFFFFF;fontStyle=0" parent="1" vertex="1">
          <mxGeometry x="1550" y="479.9999999999999" width="120" height="60" as="geometry" />
        </mxCell>
        <mxCell id="181" value="Endbildschirm&#xa;PSP-Code: 1.3.1.3" style="whiteSpace=wrap;rounded=1;fillColor=#999999;strokeColor=none;shadow=1;fontColor=#FFFFFF;fontStyle=0" parent="1" vertex="1">
          <mxGeometry x="1550" y="560" width="150" height="60" as="geometry" />
        </mxCell>
        <mxCell id="184" value="Spieler&#xa;PSP-Code: 1.3.2.1" style="whiteSpace=wrap;rounded=1;fillColor=#999999;strokeColor=none;shadow=1;fontColor=#FFFFFF;fontStyle=0" parent="1" vertex="1">
          <mxGeometry x="1749.9999999999993" y="399.9999999999999" width="120" height="60" as="geometry" />
        </mxCell>
        <mxCell id="185" value="Plattformen&#xa;PSP-Code: 1.3.2.2" style="whiteSpace=wrap;rounded=1;fillColor=#999999;strokeColor=none;shadow=1;fontColor=#FFFFFF;fontStyle=0" parent="1" vertex="1">
          <mxGeometry x="1749.9999999999995" y="479.9999999999999" width="120" height="60" as="geometry" />
        </mxCell>
        <mxCell id="186" value="Gegner&#xa;PSP-Code: 1.3.2.3" style="whiteSpace=wrap;rounded=1;fillColor=#999999;strokeColor=none;shadow=1;fontColor=#FFFFFF;fontStyle=0" parent="1" vertex="1">
          <mxGeometry x="1749.9999999999995" y="559.9999999999999" width="120" height="60" as="geometry" />
        </mxCell>
        <mxCell id="187" value="Items&#xa;PSP-Code: 1.3.2.4" style="whiteSpace=wrap;rounded=1;fillColor=#999999;strokeColor=none;shadow=1;fontColor=#FFFFFF;fontStyle=0" parent="1" vertex="1">
          <mxGeometry x="1749.9999999999995" y="639.9999999999999" width="120" height="60" as="geometry" />
        </mxCell>
        <mxCell id="188" value="Levelspezifisches&#xa;PSP-Code: 1.3.2.5" style="whiteSpace=wrap;rounded=1;fillColor=#999999;strokeColor=none;shadow=1;fontColor=#FFFFFF;fontStyle=0" parent="1" vertex="1">
          <mxGeometry x="1750" y="720" width="180" height="60" as="geometry" />
        </mxCell>
        <mxCell id="189" value="" style="edgeStyle=elbowEdgeStyle;elbow=horizontal;rounded=0;fontColor=#000000;endArrow=none;endFill=0;strokeWidth=8;strokeColor=#23445D;" parent="1" source="177" target="179" edge="1">
          <mxGeometry width="100" height="100" relative="1" as="geometry">
            <mxPoint x="1530" y="330.0000000000002" as="sourcePoint" />
            <mxPoint x="1539.9999999999995" y="429.9999999999998" as="targetPoint" />
            <Array as="points">
              <mxPoint x="1530" y="379.9999999999998" />
            </Array>
          </mxGeometry>
        </mxCell>
        <mxCell id="190" value="" style="edgeStyle=elbowEdgeStyle;elbow=horizontal;rounded=0;fontColor=#000000;endArrow=none;endFill=0;strokeWidth=8;strokeColor=#23445D;" parent="1" source="177" target="180" edge="1">
          <mxGeometry width="100" height="100" relative="1" as="geometry">
            <mxPoint x="1540" y="329.9999999999998" as="sourcePoint" />
            <mxPoint x="1539.9999999999998" y="509.9999999999998" as="targetPoint" />
            <Array as="points">
              <mxPoint x="1530" y="419.9999999999998" />
            </Array>
          </mxGeometry>
        </mxCell>
        <mxCell id="193" value="" style="edgeStyle=elbowEdgeStyle;elbow=horizontal;rounded=0;fontColor=#000000;endArrow=none;endFill=0;strokeWidth=8;strokeColor=#23445D;" parent="1" source="177" target="181" edge="1">
          <mxGeometry width="100" height="100" relative="1" as="geometry">
            <mxPoint x="1540" y="329.9999999999998" as="sourcePoint" />
            <mxPoint x="1539.9999999999998" y="589.9999999999998" as="targetPoint" />
            <Array as="points">
              <mxPoint x="1530" y="469.9999999999998" />
            </Array>
          </mxGeometry>
        </mxCell>
        <mxCell id="194" value="" style="edgeStyle=elbowEdgeStyle;elbow=horizontal;rounded=0;fontColor=#000000;endArrow=none;endFill=0;strokeWidth=8;strokeColor=#23445D;" parent="1" source="178" target="184" edge="1">
          <mxGeometry width="100" height="100" relative="1" as="geometry">
            <mxPoint x="1720" y="330.0000000000002" as="sourcePoint" />
            <mxPoint x="1729.9999999999995" y="429.9999999999998" as="targetPoint" />
            <Array as="points">
              <mxPoint x="1730" y="379.9999999999998" />
            </Array>
          </mxGeometry>
        </mxCell>
        <mxCell id="195" value="" style="edgeStyle=elbowEdgeStyle;elbow=horizontal;rounded=0;fontColor=#000000;endArrow=none;endFill=0;strokeWidth=8;strokeColor=#23445D;" parent="1" source="178" target="185" edge="1">
          <mxGeometry width="100" height="100" relative="1" as="geometry">
            <mxPoint x="1730" y="329.9999999999998" as="sourcePoint" />
            <mxPoint x="1729.9999999999998" y="509.9999999999998" as="targetPoint" />
            <Array as="points">
              <mxPoint x="1730" y="419.9999999999998" />
            </Array>
          </mxGeometry>
        </mxCell>
        <mxCell id="196" value="" style="edgeStyle=elbowEdgeStyle;elbow=horizontal;rounded=0;fontColor=#000000;endArrow=none;endFill=0;strokeWidth=8;strokeColor=#23445D;" parent="1" source="178" target="188" edge="1">
          <mxGeometry width="100" height="100" relative="1" as="geometry">
            <mxPoint x="1730" y="329.9999999999998" as="sourcePoint" />
            <mxPoint x="1730" y="749.9999999999998" as="targetPoint" />
            <Array as="points">
              <mxPoint x="1730" y="539.9999999999998" />
            </Array>
          </mxGeometry>
        </mxCell>
        <mxCell id="197" value="" style="edgeStyle=elbowEdgeStyle;elbow=horizontal;rounded=0;fontColor=#000000;endArrow=none;endFill=0;strokeWidth=8;strokeColor=#23445D;" parent="1" source="178" target="187" edge="1">
          <mxGeometry width="100" height="100" relative="1" as="geometry">
            <mxPoint x="1730" y="329.9999999999998" as="sourcePoint" />
            <mxPoint x="1730" y="669.9999999999998" as="targetPoint" />
            <Array as="points">
              <mxPoint x="1730" y="499.9999999999998" />
            </Array>
          </mxGeometry>
        </mxCell>
        <mxCell id="198" value="" style="edgeStyle=elbowEdgeStyle;elbow=horizontal;rounded=0;fontColor=#000000;endArrow=none;endFill=0;strokeWidth=8;strokeColor=#23445D;" parent="1" source="178" target="186" edge="1">
          <mxGeometry width="100" height="100" relative="1" as="geometry">
            <mxPoint x="1730" y="329.9999999999998" as="sourcePoint" />
            <mxPoint x="1729.9999999999998" y="589.9999999999998" as="targetPoint" />
            <Array as="points">
              <mxPoint x="1730" y="469.9999999999998" />
            </Array>
          </mxGeometry>
        </mxCell>
        <mxCell id="221" value="" style="edgeStyle=elbowEdgeStyle;elbow=vertical;rounded=0;fontColor=#000000;endArrow=none;endFill=0;strokeWidth=8;strokeColor=#23445D;" parent="1" edge="1">
          <mxGeometry width="100" height="100" relative="1" as="geometry">
            <mxPoint x="349.9999999999998" y="230.99999999999977" as="sourcePoint" />
            <mxPoint x="249.99999999999977" y="301" as="targetPoint" />
          </mxGeometry>
        </mxCell>
        <mxCell id="222" value="" style="edgeStyle=elbowEdgeStyle;elbow=vertical;rounded=0;fontColor=#000000;endArrow=none;endFill=0;strokeWidth=8;strokeColor=#23445D;entryX=0.5;entryY=0;entryDx=0;entryDy=0;" parent="1" source="6" target="134" edge="1">
          <mxGeometry width="100" height="100" relative="1" as="geometry">
            <mxPoint x="410" y="280" as="sourcePoint" />
            <mxPoint x="550" y="300" as="targetPoint" />
            <Array as="points">
              <mxPoint x="450" y="266" />
            </Array>
          </mxGeometry>
        </mxCell>
        <mxCell id="223" value="" style="edgeStyle=elbowEdgeStyle;elbow=vertical;rounded=0;fontColor=#000000;endArrow=none;endFill=0;strokeWidth=8;strokeColor=#23445D;" parent="1" source="7" target="155" edge="1">
          <mxGeometry width="100" height="100" relative="1" as="geometry">
            <mxPoint x="1210" y="300" as="sourcePoint" />
            <mxPoint x="1110" y="190" as="targetPoint" />
          </mxGeometry>
        </mxCell>
        <mxCell id="224" value="" style="edgeStyle=elbowEdgeStyle;elbow=vertical;rounded=0;fontColor=#000000;endArrow=none;endFill=0;strokeWidth=8;strokeColor=#23445D;" parent="1" source="7" target="156" edge="1">
          <mxGeometry width="100" height="100" relative="1" as="geometry">
            <mxPoint x="1300" y="290" as="sourcePoint" />
            <mxPoint x="1400" y="190" as="targetPoint" />
          </mxGeometry>
        </mxCell>
        <mxCell id="225" value="" style="edgeStyle=elbowEdgeStyle;elbow=vertical;rounded=0;fontColor=#000000;endArrow=none;endFill=0;strokeWidth=8;strokeColor=#23445D;" parent="1" source="8" target="177" edge="1">
          <mxGeometry width="100" height="100" relative="1" as="geometry">
            <mxPoint x="1550" y="290" as="sourcePoint" />
            <mxPoint x="1650" y="190" as="targetPoint" />
          </mxGeometry>
        </mxCell>
        <mxCell id="226" value="" style="edgeStyle=elbowEdgeStyle;elbow=vertical;rounded=0;fontColor=#000000;endArrow=none;endFill=0;strokeWidth=8;strokeColor=#23445D;" parent="1" source="8" target="178" edge="1">
          <mxGeometry width="100" height="100" relative="1" as="geometry">
            <mxPoint x="1780" y="290" as="sourcePoint" />
            <mxPoint x="1880" y="190" as="targetPoint" />
          </mxGeometry>
        </mxCell>
        <mxCell id="231" value="" style="edgeStyle=elbowEdgeStyle;elbow=vertical;rounded=0;fontColor=#000000;endArrow=none;endFill=0;strokeWidth=8;strokeColor=#23445D;" parent="1" source="2" target="6" edge="1">
          <mxGeometry width="100" height="100" relative="1" as="geometry">
            <mxPoint x="560" y="160" as="sourcePoint" />
            <mxPoint x="660" y="60" as="targetPoint" />
          </mxGeometry>
        </mxCell>
        <mxCell id="232" value="" style="edgeStyle=elbowEdgeStyle;elbow=vertical;rounded=0;fontColor=#000000;endArrow=none;endFill=0;strokeWidth=8;strokeColor=#23445D;" parent="1" source="2" target="7" edge="1">
          <mxGeometry width="100" height="100" relative="1" as="geometry">
            <mxPoint x="570" y="170" as="sourcePoint" />
            <mxPoint x="670" y="70" as="targetPoint" />
          </mxGeometry>
        </mxCell>
        <mxCell id="233" value="" style="edgeStyle=elbowEdgeStyle;elbow=vertical;rounded=0;fontColor=#000000;endArrow=none;endFill=0;strokeWidth=8;strokeColor=#23445D;" parent="1" source="2" target="8" edge="1">
          <mxGeometry width="100" height="100" relative="1" as="geometry">
            <mxPoint x="580" y="180" as="sourcePoint" />
            <mxPoint x="680" y="80" as="targetPoint" />
          </mxGeometry>
        </mxCell>
        <mxCell id="8f8zLz7xY8ubk5F-xTtA-258" value="Bewegung&#xa;PSP-Code: 1.1.3.1" style="whiteSpace=wrap;rounded=1;fillColor=#999999;strokeColor=none;shadow=1;fontColor=#FFFFFF;fontStyle=0" parent="1" vertex="1">
          <mxGeometry x="569.9999999999993" y="400.0000000000001" width="120" height="60" as="geometry" />
        </mxCell>
        <mxCell id="8f8zLz7xY8ubk5F-xTtA-259" value="Interaktion mit Spieler&#xa;PSP-Code: 1.1.3.2" style="whiteSpace=wrap;rounded=1;fillColor=#999999;strokeColor=none;shadow=1;fontColor=#FFFFFF;fontStyle=0" parent="1" vertex="1">
          <mxGeometry x="570" y="480" width="140" height="60" as="geometry" />
        </mxCell>
        <mxCell id="8f8zLz7xY8ubk5F-xTtA-263" value="" style="edgeStyle=elbowEdgeStyle;elbow=horizontal;rounded=0;fontColor=#000000;endArrow=none;endFill=0;strokeWidth=8;strokeColor=#23445D;" parent="1" source="8f8zLz7xY8ubk5F-xTtA-257" target="8f8zLz7xY8ubk5F-xTtA-258" edge="1">
          <mxGeometry width="100" height="100" relative="1" as="geometry">
            <mxPoint x="540" y="330.00000000000045" as="sourcePoint" />
            <mxPoint x="549.9999999999995" y="430" as="targetPoint" />
            <Array as="points">
              <mxPoint x="550" y="380" />
            </Array>
          </mxGeometry>
        </mxCell>
        <mxCell id="8f8zLz7xY8ubk5F-xTtA-264" value="" style="edgeStyle=elbowEdgeStyle;elbow=horizontal;rounded=0;fontColor=#000000;endArrow=none;endFill=0;strokeWidth=8;strokeColor=#23445D;" parent="1" source="8f8zLz7xY8ubk5F-xTtA-257" target="8f8zLz7xY8ubk5F-xTtA-259" edge="1">
          <mxGeometry width="100" height="100" relative="1" as="geometry">
            <mxPoint x="550" y="330" as="sourcePoint" />
            <mxPoint x="549.9999999999998" y="510" as="targetPoint" />
            <Array as="points">
              <mxPoint x="550" y="420" />
            </Array>
          </mxGeometry>
        </mxCell>
        <mxCell id="8f8zLz7xY8ubk5F-xTtA-268" value="" style="edgeStyle=elbowEdgeStyle;elbow=vertical;rounded=0;fontColor=#000000;endArrow=none;endFill=0;strokeWidth=8;strokeColor=#23445D;exitX=0.5;exitY=0;exitDx=0;exitDy=0;" parent="1" edge="1">
          <mxGeometry width="100" height="100" relative="1" as="geometry">
            <mxPoint x="629.9999999999998" y="346.0000000000001" as="sourcePoint" />
            <mxPoint x="450" y="342" as="targetPoint" />
            <Array as="points">
              <mxPoint x="560" y="266" />
            </Array>
          </mxGeometry>
        </mxCell>
        <mxCell id="134" value="Plattform Logik&#xa;PSP-Code: 1.1.2" style="whiteSpace=wrap;rounded=1;fillColor=#12AAB5;strokeColor=none;shadow=1;fontColor=#FFFFFF;" parent="1" vertex="1">
          <mxGeometry x="389.9999999999998" y="300.0000000000001" width="120" height="60" as="geometry" />
        </mxCell>
        <mxCell id="8f8zLz7xY8ubk5F-xTtA-257" value="Gegner Logik&#xa;PSP-Code: 1.1.3" style="whiteSpace=wrap;rounded=1;fillColor=#12AAB5;strokeColor=none;shadow=1;fontColor=#FFFFFF;" parent="1" vertex="1">
          <mxGeometry x="570" y="300" width="120" height="60" as="geometry" />
        </mxCell>
        <mxCell id="8f8zLz7xY8ubk5F-xTtA-271" value="Darstellung und Platzierung&#xa;PSP-Code: 1.1.4.1" style="whiteSpace=wrap;rounded=1;fillColor=#999999;strokeColor=none;shadow=1;fontColor=#FFFFFF;fontStyle=0" parent="1" vertex="1">
          <mxGeometry x="749.9999999999993" y="400.0000000000001" width="120" height="60" as="geometry" />
        </mxCell>
        <mxCell id="8f8zLz7xY8ubk5F-xTtA-272" value="Verwendung des Items&#xa;PSP-Code: 1.1.4.2" style="whiteSpace=wrap;rounded=1;fillColor=#999999;strokeColor=none;shadow=1;fontColor=#FFFFFF;fontStyle=0" parent="1" vertex="1">
          <mxGeometry x="750" y="480" width="160" height="60" as="geometry" />
        </mxCell>
        <mxCell id="8f8zLz7xY8ubk5F-xTtA-276" value="" style="edgeStyle=elbowEdgeStyle;elbow=horizontal;rounded=0;fontColor=#000000;endArrow=none;endFill=0;strokeWidth=8;strokeColor=#23445D;" parent="1" source="8f8zLz7xY8ubk5F-xTtA-281" target="8f8zLz7xY8ubk5F-xTtA-271" edge="1">
          <mxGeometry width="100" height="100" relative="1" as="geometry">
            <mxPoint x="720" y="330.00000000000045" as="sourcePoint" />
            <mxPoint x="729.9999999999995" y="430" as="targetPoint" />
            <Array as="points">
              <mxPoint x="730" y="380" />
            </Array>
          </mxGeometry>
        </mxCell>
        <mxCell id="8f8zLz7xY8ubk5F-xTtA-277" value="" style="edgeStyle=elbowEdgeStyle;elbow=horizontal;rounded=0;fontColor=#000000;endArrow=none;endFill=0;strokeWidth=8;strokeColor=#23445D;" parent="1" source="8f8zLz7xY8ubk5F-xTtA-281" target="8f8zLz7xY8ubk5F-xTtA-272" edge="1">
          <mxGeometry width="100" height="100" relative="1" as="geometry">
            <mxPoint x="730" y="330" as="sourcePoint" />
            <mxPoint x="729.9999999999998" y="510" as="targetPoint" />
            <Array as="points">
              <mxPoint x="730" y="420" />
            </Array>
          </mxGeometry>
        </mxCell>
        <mxCell id="8f8zLz7xY8ubk5F-xTtA-281" value="Item Logik&#xa;PSP-Code: 1.1.4" style="whiteSpace=wrap;rounded=1;fillColor=#12AAB5;strokeColor=none;shadow=1;fontColor=#FFFFFF;" parent="1" vertex="1">
          <mxGeometry x="750" y="300" width="120" height="60" as="geometry" />
        </mxCell>
        <mxCell id="8f8zLz7xY8ubk5F-xTtA-282" value="" style="edgeStyle=elbowEdgeStyle;elbow=horizontal;rounded=0;fontColor=#000000;endArrow=none;endFill=0;strokeWidth=8;strokeColor=#23445D;entryX=0;entryY=0.5;entryDx=0;entryDy=0;" parent="1" target="8f8zLz7xY8ubk5F-xTtA-284" edge="1">
          <mxGeometry width="100" height="100" relative="1" as="geometry">
            <mxPoint x="1050" y="330" as="sourcePoint" />
            <mxPoint x="1040" y="850" as="targetPoint" />
            <Array as="points">
              <mxPoint x="1030" y="550.0000000000001" />
            </Array>
          </mxGeometry>
        </mxCell>
        <mxCell id="8f8zLz7xY8ubk5F-xTtA-284" value="Gestaltung Level 6 (Finale)&#xa;PSP-Code: 1.2.1.6 " style="whiteSpace=wrap;rounded=1;fillColor=#999999;strokeColor=none;shadow=1;fontColor=#FFFFFF;fontStyle=0" parent="1" vertex="1">
          <mxGeometry x="1049" y="800" width="171" height="60" as="geometry" />
        </mxCell>
        <mxCell id="8f8zLz7xY8ubk5F-xTtA-287" value="" style="rhombus;whiteSpace=wrap;html=1;fillColor=#FF0000;strokeColor=#b85450;" parent="1" vertex="1">
          <mxGeometry x="250" y="430" width="20" height="20" as="geometry" />
        </mxCell>
        <mxCell id="8f8zLz7xY8ubk5F-xTtA-291" value="" style="rhombus;whiteSpace=wrap;html=1;fillColor=#FF0000;strokeColor=#b85450;" parent="1" vertex="1">
          <mxGeometry x="570" y="520" width="20" height="20" as="geometry" />
        </mxCell>
        <mxCell id="8f8zLz7xY8ubk5F-xTtA-292" value="" style="rhombus;whiteSpace=wrap;html=1;fillColor=#FF0000;strokeColor=#b85450;" parent="1" vertex="1">
          <mxGeometry x="890" y="510" width="20" height="20" as="geometry" />
        </mxCell>
        <mxCell id="8f8zLz7xY8ubk5F-xTtA-293" value="" style="rhombus;whiteSpace=wrap;html=1;fillColor=#FF0000;strokeColor=#b85450;" parent="1" vertex="1">
          <mxGeometry x="1190" y="830" width="20" height="20" as="geometry" />
        </mxCell>
        <mxCell id="8f8zLz7xY8ubk5F-xTtA-294" value="" style="rhombus;whiteSpace=wrap;html=1;fillColor=#FF0000;strokeColor=#b85450;" parent="1" vertex="1">
          <mxGeometry x="1900" y="750" width="20" height="20" as="geometry" />
        </mxCell>
        <mxCell id="8f8zLz7xY8ubk5F-xTtA-295" value="" style="rhombus;whiteSpace=wrap;html=1;fillColor=#FF0000;strokeColor=#b85450;" parent="1" vertex="1">
          <mxGeometry x="1680" y="600" width="20" height="20" as="geometry" />
        </mxCell>
        <mxCell id="K-p76ZhPV3M_F1lpq9I6-236" value="Hintergrund&#xa;PSP-Code: 1.3.1.4" style="whiteSpace=wrap;rounded=1;fillColor=#999999;strokeColor=none;shadow=1;fontColor=#FFFFFF;fontStyle=0" parent="1" vertex="1">
          <mxGeometry x="1549.9999999999995" y="639.9999999999999" width="120" height="60" as="geometry" />
        </mxCell>
        <mxCell id="K-p76ZhPV3M_F1lpq9I6-237" value="" style="edgeStyle=elbowEdgeStyle;elbow=horizontal;rounded=0;fontColor=#000000;endArrow=none;endFill=0;strokeWidth=8;strokeColor=#23445D;entryX=0;entryY=0.5;entryDx=0;entryDy=0;" parent="1" target="K-p76ZhPV3M_F1lpq9I6-236" edge="1">
          <mxGeometry width="100" height="100" relative="1" as="geometry">
            <mxPoint x="1545" y="330" as="sourcePoint" />
            <mxPoint x="1549.9999999999995" y="660.0000000000002" as="targetPoint" />
            <Array as="points">
              <mxPoint x="1525" y="539.9999999999998" />
            </Array>
          </mxGeometry>
        </mxCell>
        <mxCell id="K-p76ZhPV3M_F1lpq9I6-238" value="" style="edgeStyle=elbowEdgeStyle;elbow=horizontal;rounded=0;fontColor=#000000;endArrow=none;endFill=0;strokeWidth=8;strokeColor=#23445D;entryX=0;entryY=0.5;entryDx=0;entryDy=0;" parent="1" target="K-p76ZhPV3M_F1lpq9I6-239" edge="1">
          <mxGeometry width="100" height="100" relative="1" as="geometry">
            <mxPoint x="1530" y="460" as="sourcePoint" />
            <mxPoint x="1550" y="750" as="targetPoint" />
            <Array as="points">
              <mxPoint x="1525" y="669.9999999999998" />
            </Array>
          </mxGeometry>
        </mxCell>
        <mxCell id="K-p76ZhPV3M_F1lpq9I6-239" value="Timer&#xa;PSP-Code: 1.3.1.5" style="whiteSpace=wrap;rounded=1;fillColor=#999999;strokeColor=none;shadow=1;fontColor=#FFFFFF;fontStyle=0" parent="1" vertex="1">
          <mxGeometry x="1549.9999999999995" y="719.9999999999999" width="120" height="60" as="geometry" />
        </mxCell>
        <mxCell id="R-5LD8F2L15hRYXn2pmP-233" value="" style="edgeStyle=elbowEdgeStyle;elbow=horizontal;rounded=0;fontColor=#000000;endArrow=none;endFill=0;strokeWidth=8;strokeColor=#23445D;" parent="1" edge="1">
          <mxGeometry width="100" height="100" relative="1" as="geometry">
            <mxPoint x="570" y="430" as="sourcePoint" />
            <mxPoint x="570" y="610" as="targetPoint" />
            <Array as="points">
              <mxPoint x="550" y="520" />
            </Array>
          </mxGeometry>
        </mxCell>
        <mxCell id="R-5LD8F2L15hRYXn2pmP-234" value="Platzierung&#xa;PSP-Code: 1.1.3.3" style="whiteSpace=wrap;rounded=1;fillColor=#999999;strokeColor=none;shadow=1;fontColor=#FFFFFF;fontStyle=0" parent="1" vertex="1">
          <mxGeometry x="569.9999999999993" y="580.0000000000001" width="120" height="60" as="geometry" />
        </mxCell>
        <mxCell id="gsck_IBYIw7kdVV4v3MN-233" value="" style="edgeStyle=elbowEdgeStyle;elbow=horizontal;rounded=0;fontColor=#000000;endArrow=none;endFill=0;strokeWidth=8;strokeColor=#23445D;entryX=0;entryY=0.5;entryDx=0;entryDy=0;" edge="1" parent="1">
          <mxGeometry width="100" height="100" relative="1" as="geometry">
            <mxPoint x="1530" y="540" as="sourcePoint" />
            <mxPoint x="1550" y="810" as="targetPoint" />
            <Array as="points">
              <mxPoint x="1525" y="749.9999999999998" />
            </Array>
          </mxGeometry>
        </mxCell>
        <mxCell id="gsck_IBYIw7kdVV4v3MN-234" value="Exit Menü&#xa;PSP-Code: 1.3.1.6" style="whiteSpace=wrap;rounded=1;fillColor=#999999;strokeColor=none;shadow=1;fontColor=#FFFFFF;fontStyle=0" vertex="1" parent="1">
          <mxGeometry x="1549.9999999999995" y="789.9999999999999" width="120" height="60" as="geometry" />
        </mxCell>
        <mxCell id="gsck_IBYIw7kdVV4v3MN-235" value="" style="edgeStyle=elbowEdgeStyle;elbow=horizontal;rounded=0;fontColor=#000000;endArrow=none;endFill=0;strokeWidth=8;strokeColor=#23445D;entryX=0;entryY=0.5;entryDx=0;entryDy=0;" edge="1" parent="1">
          <mxGeometry width="100" height="100" relative="1" as="geometry">
            <mxPoint x="1530" y="620" as="sourcePoint" />
            <mxPoint x="1550" y="890" as="targetPoint" />
            <Array as="points">
              <mxPoint x="1525" y="829.9999999999998" />
            </Array>
          </mxGeometry>
        </mxCell>
        <mxCell id="gsck_IBYIw7kdVV4v3MN-237" value="Sound Menü&#xa;PSP-Code: 1.3.1.7" style="whiteSpace=wrap;rounded=1;fillColor=#999999;strokeColor=none;shadow=1;fontColor=#FFFFFF;fontStyle=0" vertex="1" parent="1">
          <mxGeometry x="1549.9999999999995" y="859.9999999999999" width="120" height="60" as="geometry" />
        </mxCell>
        <mxCell id="gsck_IBYIw7kdVV4v3MN-238" value="Level Menü&#xa;PSP-Code: 1.3.1.8" style="whiteSpace=wrap;rounded=1;fillColor=#999999;strokeColor=none;shadow=1;fontColor=#FFFFFF;fontStyle=0" vertex="1" parent="1">
          <mxGeometry x="1549.9999999999995" y="949.9999999999999" width="120" height="60" as="geometry" />
        </mxCell>
        <mxCell id="gsck_IBYIw7kdVV4v3MN-239" value="" style="edgeStyle=elbowEdgeStyle;elbow=horizontal;rounded=0;fontColor=#000000;endArrow=none;endFill=0;strokeWidth=8;strokeColor=#23445D;entryX=0;entryY=0.5;entryDx=0;entryDy=0;" edge="1" parent="1">
          <mxGeometry width="100" height="100" relative="1" as="geometry">
            <mxPoint x="1530" y="710" as="sourcePoint" />
            <mxPoint x="1550" y="980" as="targetPoint" />
            <Array as="points">
              <mxPoint x="1525" y="919.9999999999998" />
            </Array>
          </mxGeometry>
        </mxCell>
      </root>
    </mxGraphModel>
  </diagram>
</mxfile>
